<?xml version="1.0" encoding="UTF-8"?>
<svg version="1.1" xmlns="http://www.w3.org/2000/svg" width="512" height="512">
<path d="M0 0 C6.33984804 4.80660264 10.3620632 11.22232024 12 19 C12.61011635 27.38158873 11.45895618 34.9379791 9.41015625 43.0390625 C9.01418495 44.67118179 9.01418495 44.67118179 8.61021423 46.33627319 C7.77378172 49.76913581 6.91819855 53.19689541 6.0625 56.625 C5.49163203 58.96194519 4.92195964 61.29918277 4.35351562 63.63671875 C3.31429011 67.88405152 2.27409048 72.13108602 1.21508789 76.37353516 C1.00412979 77.2211441 0.79317169 78.06875305 0.57582092 78.94204712 C0 81 0 81 -1 83 C-9.59868438 82.38580826 -17.69484752 80.19092979 -26 78 C-25.01 84.93 -25.01 84.93 -24 92 C-17.70210512 94.13315794 -11.37652406 96.1160097 -5 98 C-6.33508061 107.0701382 -8.34588578 115.8744251 -10.625 124.75 C-10.95357184 126.04415747 -11.28169921 127.33842786 -11.609375 128.6328125 C-12.40190522 131.75631396 -13.20033607 134.87831726 -14 138 C-19.61 136.68 -25.22 135.36 -31 134 C-31.33 135.65 -31.66 137.3 -32 139 C-33.19140625 141.45703125 -33.19140625 141.45703125 -34.5625 143.8125 C-35.01753906 144.60269531 -35.47257813 145.39289063 -35.94140625 146.20703125 C-36.29074219 146.79871094 -36.64007813 147.39039063 -37 148 C-35.906875 148.103125 -34.81375 148.20625 -33.6875 148.3125 C-28.30701681 148.9693633 -23.19507024 150.50079942 -18 152 C-19.24808022 159.27355632 -20.74351296 166.43618882 -22.51855469 173.59838867 C-22.88492538 175.09378929 -22.88492538 175.09378929 -23.25869751 176.61940002 C-24.05994022 179.88637237 -24.865854 183.15217232 -25.671875 186.41796875 C-26.23784355 188.72123081 -26.80353262 191.02456157 -27.36895752 193.32795715 C-28.85642327 199.38401957 -30.34792297 205.4390816 -31.84020996 211.49395752 C-33.04235868 216.37441036 -34.24171854 221.25554634 -35.4408989 226.13672924 C-37.42812651 234.22543413 -39.41713175 242.31370223 -41.40740967 250.4016571 C-41.66609455 251.45297978 -41.92477943 252.50430246 -42.19130325 253.58748341 C-42.70114144 255.65438379 -43.21277947 257.72084114 -43.7263298 259.78682232 C-45.04467305 265.09237921 -46.33384792 270.40265358 -47.57971191 275.72573853 C-47.84095478 276.82103787 -48.10219765 277.91633722 -48.37135696 279.04482746 C-48.86846612 281.12982178 -49.35559274 283.21723118 -49.83088303 285.30730724 C-52.05462271 294.53422107 -52.05462271 294.53422107 -56 298 C-58.31433105 298.62818909 -58.31433105 298.62818909 -60.88867188 298.63110352 C-61.85647583 298.64363663 -62.82427979 298.65616974 -63.82141113 298.66908264 C-65.37934387 298.64919533 -65.37934387 298.64919533 -66.96875 298.62890625 C-68.04120972 298.63131821 -69.11366943 298.63373016 -70.21862793 298.63621521 C-72.48481954 298.63523624 -74.7510349 298.62183083 -77.01708984 298.59692383 C-80.48747937 298.56262375 -83.95532223 298.57626147 -87.42578125 298.59570312 C-89.62761502 298.58880462 -91.8294422 298.57913221 -94.03125 298.56640625 C-95.06987183 298.57136612 -96.10849365 298.57632599 -97.17858887 298.58143616 C-104.36308318 298.4638751 -104.36308318 298.4638751 -107.62304688 296.08959961 C-110.73747841 291.36328409 -109.86905684 287.41429564 -109 282 C-107.73771273 275.88836659 -106.15936048 269.8464693 -104.6328125 263.796875 C-104.19234899 262.02883412 -103.75257261 260.26062194 -103.31344604 258.49224854 C-102.15994531 253.85361026 -100.9985214 249.21699534 -99.83496094 244.58087158 C-97.97833072 237.17781396 -96.13370282 229.77175848 -94.28933334 222.36563873 C-93.64991451 219.80291798 -93.00703371 217.24108648 -92.36355591 214.67938232 C-90.06175294 205.4856162 -87.90581505 196.28564676 -86 187 C-86.85327881 187.22051025 -87.70655762 187.44102051 -88.58569336 187.66821289 C-112.17502211 193.76433156 -135.13845058 191.93077471 -157 181 C-157.00331015 181.55714786 -157.00662029 182.11429571 -157.01003075 182.68832684 C-157.0912859 196.251122 -157.18351132 209.81380446 -157.28752708 223.37644482 C-157.33749707 229.93526782 -157.38382724 236.49407466 -157.421875 243.05297852 C-157.45871865 249.38132745 -157.50507645 255.7095414 -157.55806351 262.03777504 C-157.57661228 264.45349068 -157.59171844 266.86923525 -157.60334396 269.28499413 C-157.62019783 272.6656416 -157.64923153 276.04597959 -157.68115234 279.42651367 C-157.68331253 280.42776779 -157.68547272 281.42902191 -157.68769836 282.46061707 C-157.75354906 287.91116552 -157.88134813 292.30353398 -161.375 296.75 C-164.27669874 298.98207596 -167.47824635 299.125454 -171.04663086 299.14526367 C-172.2232151 299.15483345 -172.2232151 299.15483345 -173.42356873 299.16459656 C-174.26218948 299.16570938 -175.10081024 299.1668222 -175.96484375 299.16796875 C-177.27032921 299.17296135 -177.27032921 299.17296135 -178.60218811 299.17805481 C-180.44043449 299.18311074 -182.27869003 299.18546355 -184.11694336 299.18530273 C-186.92381955 299.18748934 -189.73030267 299.20565943 -192.53710938 299.22460938 C-194.32551949 299.22754358 -196.11393147 299.22952819 -197.90234375 299.23046875 C-198.73894028 299.23765427 -199.5755368 299.24483978 -200.43748474 299.25224304 C-205.48840138 299.23251101 -209.54320769 299.0134093 -213.60935956 295.68108529 C-215.33110218 293.59974484 -215.37338054 292.60312354 -215.36914349 289.92953968 C-215.37511663 289.09800178 -215.38108978 288.26646389 -215.38724393 287.40972787 C-215.3785054 286.49631165 -215.36976688 285.58289543 -215.36076355 284.64179993 C-215.36332682 283.67143474 -215.3658901 282.70106956 -215.36853105 281.70129937 C-215.37349005 278.43522107 -215.35694094 275.16960048 -215.34057617 271.90356445 C-215.33973036 269.56817638 -215.34020415 267.23278751 -215.34190369 264.8973999 C-215.34276685 258.54440497 -215.32508914 252.19157887 -215.30418181 245.83862329 C-215.28736311 239.87592585 -215.28431479 233.91323515 -215.2812262 227.9505172 C-215.27465805 216.13909866 -215.25468705 204.32774223 -215.22631836 192.51635742 C-215.19878718 181.04175121 -215.177549 169.56716186 -215.16479492 158.0925293 C-215.16400675 157.38539952 -215.16321858 156.67826973 -215.16240653 155.94971178 C-215.15849145 152.4022989 -215.15470032 148.8548859 -215.15097082 145.30747283 C-215.11986359 115.87160743 -215.06619308 86.43580719 -215 57 C-207.74 57 -200.48 57 -193 57 C-192.34 55.35 -191.68 53.7 -191 52 C-188.03 47.545 -188.03 47.545 -185 43 C-199.85 42.505 -199.85 42.505 -215 42 C-215 28.47 -215 14.94 -215 1 C-196.19 1 -177.38 1 -158 1 C-158 7.6 -158 14.2 -158 21 C-155.9271875 19.88625 -155.9271875 19.88625 -153.8125 18.75 C-133.06272661 8.44807313 -108.33163818 7.05629353 -86.375 14.25 C-71.90558316 19.26742575 -60.63618987 27.23452502 -49 37 C-48.77449463 35.98015015 -48.77449463 35.98015015 -48.54443359 34.93969727 C-47.84062397 31.80926056 -47.10806001 28.68621095 -46.375 25.5625 C-46.02115234 23.95858398 -46.02115234 23.95858398 -45.66015625 22.32226562 C-43.71699583 14.17593923 -40.95589221 7.58008245 -34.65625 1.87890625 C-23.53170719 -4.91270775 -11.76900116 -6.91454314 0 0 Z M-106 28 C-106 75.85 -106 123.7 -106 173 C-102.7 172.67 -99.4 172.34 -96 172 C-95.97421875 170.96359375 -95.9484375 169.9271875 -95.921875 168.859375 C-95.86558049 167.48954199 -95.80823345 166.11975195 -95.75 164.75 C-95.73582031 164.06808594 -95.72164062 163.38617188 -95.70703125 162.68359375 C-95.54232859 159.29071897 -95.21792489 157.29398861 -93.17578125 154.5390625 C-90.03854576 152.3199049 -87.74798524 152.59112888 -84 153 C-81 155 -81 155 -80.26953125 157.1640625 C-80.11871094 157.97617187 -79.96789062 158.78828125 -79.8125 159.625 C-79.57466797 160.85089844 -79.57466797 160.85089844 -79.33203125 162.1015625 C-79.22246094 162.72804688 -79.11289062 163.35453125 -79 164 C-64.07061203 158.61391607 -53.77504415 144.22774256 -47.25 130.4375 C-39.11294944 111.67410381 -38.78882704 91.92098257 -46.25 72.8125 C-52.9502768 57.7967011 -63.22383051 45.89755721 -77 37 C-77.66 37 -78.32 37 -79 37 C-79.16435547 37.93972656 -79.16435547 37.93972656 -79.33203125 38.8984375 C-79.49058594 39.71570313 -79.64914062 40.53296875 -79.8125 41.375 C-79.96332031 42.18710938 -80.11414063 42.99921875 -80.26953125 43.8359375 C-81 46 -81 46 -84 48 C-85.9375 48.3359375 -85.9375 48.3359375 -88 48.375 C-88.680625 48.40335938 -89.36125 48.43171875 -90.0625 48.4609375 C-92 48 -92 48 -93.70703125 46.4296875 C-95.44467244 43.16439197 -95.51711614 40.43029142 -95.6875 36.75 C-95.75324219 35.48671875 -95.81898438 34.2234375 -95.88671875 32.921875 C-95.92410156 31.95765625 -95.96148437 30.9934375 -96 30 C-99.80043446 28.26265853 -101.59714577 28 -106 28 Z M-133 30 C-133.03738281 30.96421875 -133.07476562 31.9284375 -133.11328125 32.921875 C-133.17902344 34.18515625 -133.24476563 35.4484375 -133.3125 36.75 C-133.39951172 38.62945312 -133.39951172 38.62945312 -133.48828125 40.546875 C-134.00922572 44.06225602 -134.41412984 45.60391847 -137 48 C-141.3891322 48.55735012 -143.71081595 48.82640003 -147.4375 46.4375 C-149.43656214 43.31896306 -149.71860476 40.65813817 -150 37 C-165.09227027 42.19391644 -175.14247676 57.40686505 -182 71 C-189.79747522 88.25595108 -190.03730169 107.38825255 -183.8984375 125.1953125 C-177.84634072 140.46221469 -167.13240106 156.43379947 -152 164 C-151.34 164 -150.68 164 -150 164 C-149.89042969 163.37351562 -149.78085937 162.74703125 -149.66796875 162.1015625 C-149.50941406 161.28429687 -149.35085938 160.46703125 -149.1875 159.625 C-149.03667969 158.81289063 -148.88585937 158.00078125 -148.73046875 157.1640625 C-148 155 -148 155 -145 153 C-138.93531105 152.33839757 -138.93531105 152.33839757 -135.82421875 154.5390625 C-133.3886344 157.82475445 -133.33206677 160.80333445 -133.25 164.75 C-133.22035156 165.44738281 -133.19070313 166.14476562 -133.16015625 166.86328125 C-133.08981542 168.57490813 -133.04260054 170.28745815 -133 172 C-129.7 172.33 -126.4 172.66 -123 173 C-123 125.15 -123 77.3 -123 28 C-126.90432869 28 -129.38026598 28.68373308 -133 30 Z " fill="#000000" transform="translate(440,182)"/>
<path d="M0 0 C0.63652992 2.55707264 0.63652992 2.55707264 1.18960571 6.03779602 C1.29340337 6.67538493 1.39720103 7.31297384 1.50414407 7.96988362 C1.8520248 10.12097066 2.18693437 12.27388008 2.52197266 14.42700195 C2.76782379 15.9644292 3.01443912 17.5017344 3.26176453 19.03892517 C3.93331377 23.22830732 4.59339667 27.41942309 5.25101519 31.61101174 C5.94100637 35.99983775 6.63970419 40.38727883 7.33700562 44.77494812 C8.508511 52.15599749 9.67237211 59.53822344 10.83203125 66.92114258 C12.169587 75.43586874 13.52019389 83.94844722 14.87771761 92.46001083 C16.04382667 99.77373203 17.20264275 107.08858232 18.35551679 114.40440148 C19.04357003 118.77050778 19.73408944 123.13618375 20.43123245 127.50084877 C21.08808267 131.61579851 21.7357065 135.73210136 22.37655067 139.84957314 C22.61200034 141.35278096 22.85053013 142.85551043 23.0925312 144.35767746 C26.20418503 163.70392432 26.20418503 163.70392432 25 170 C22.98001058 172.46412426 21.86227562 173.80447016 18.73036194 174.5146637 C17.90161057 174.52086227 17.07285919 174.52706085 16.21899414 174.53344727 C14.80216087 174.55720177 14.80216087 174.55720177 13.35670471 174.58143616 C12.34309372 174.57647629 11.32948273 174.57151642 10.28515625 174.56640625 C9.23726425 174.57260483 8.18937225 174.57880341 7.10972595 174.58518982 C4.89485605 174.59228985 2.67993279 174.58911084 0.46508789 174.57641602 C-2.92206218 174.56256314 -6.30644321 174.59660527 -9.69335938 174.63476562 C-11.84635484 174.63571694 -13.99935377 174.63385732 -16.15234375 174.62890625 C-17.16393051 174.64216446 -18.17551727 174.65542267 -19.21775818 174.66908264 C-20.16546585 174.65654953 -21.11317352 174.64401642 -22.08959961 174.63110352 C-22.91914658 174.63014175 -23.74869354 174.62917999 -24.6033783 174.62818909 C-28.16448139 173.69477265 -29.63536052 171.77516198 -32 169 C-33.00567341 165.92559624 -33.00567341 165.92559624 -33.55036926 162.42062378 C-33.6567302 161.77326708 -33.76309113 161.12591038 -33.87267512 160.45893681 C-34.22219502 158.30059328 -34.54227342 156.13893515 -34.86254883 153.97607422 C-35.10783136 152.42329521 -35.35491763 150.87080021 -35.60366821 149.318573 C-36.27268814 145.11079111 -36.91626026 140.89946868 -37.555197 136.68702841 C-38.22805669 132.2792506 -38.9238631 127.87509792 -39.61711121 123.4704895 C-40.77760856 116.07660161 -41.92327946 108.68054715 -43.05834961 101.28271484 C-44.65996644 90.84424692 -46.28746486 80.4099395 -47.92055857 69.97635627 C-50.10584365 56.00635192 -52.28358045 42.03509737 -54.43143082 28.05928421 C-54.66448761 26.54461782 -54.89829759 25.0300671 -55.13290596 23.51564026 C-55.45229696 21.45255731 -55.76883396 19.38905715 -56.08454895 17.32540894 C-56.26241345 16.16952208 -56.44027796 15.01363522 -56.6235323 13.82272148 C-57 11 -57 11 -57 8 C-49.2052627 6.69093958 -41.40890824 5.39187191 -33.61132812 4.09985352 C-30.95683794 3.65954102 -28.3029146 3.21601217 -25.64941406 2.76977539 C-21.84277445 2.1308342 -18.03484808 1.50013994 -14.2265625 0.87109375 C-12.43745956 0.5680558 -12.43745956 0.5680558 -10.61221313 0.25889587 C-9.51122284 0.07863358 -8.41023254 -0.10162872 -7.27587891 -0.28735352 C-5.8169371 -0.53051048 -5.8169371 -0.53051048 -4.32852173 -0.77857971 C-2 -1 -2 -1 0 0 Z " fill="#000000" transform="translate(155,306)"/>
<path d="M0 0 C4.69800337 5.28401224 7.17667714 11.23451256 9 18 C10.59328125 17.67515625 10.59328125 17.67515625 12.21875 17.34375 C13.64575528 17.06210422 15.07284313 16.78087662 16.5 16.5 C17.19609375 16.35691406 17.8921875 16.21382812 18.609375 16.06640625 C24.29483906 14.96089935 30.28951423 13.82956296 35.75 16.1875 C41.82214792 21.07895249 43.42430929 26.23684469 44.328125 33.71484375 C44.62642171 38.65707786 44.59183377 41.63152222 41.5703125 45.6875 C37.77142543 49.80858398 33.75759642 50.58870595 28.375 51.4375 C27.529375 51.59669922 26.68375 51.75589844 25.8125 51.91992188 C22.10593575 52.59517136 18.78830425 53 15 53 C15.33 53.99 15.66 54.98 16 56 C16.75634877 64.05802344 15.8992685 71.0105594 11.078125 77.64453125 C5.12240361 84.65790661 -1.03449112 89.31135163 -10.41015625 90.23828125 C-17.68822848 90.44193865 -23.34441398 88.88365816 -30 86 C-30.40089844 86.45890625 -30.80179687 86.9178125 -31.21484375 87.390625 C-36.66309278 93.27127475 -41.50971207 96.52656747 -49.59375 97.37890625 C-59.98756092 97.70111439 -67.68137637 95.90857097 -75.43359375 88.83984375 C-79.54948964 84.00546229 -81.69833466 77.84268895 -84 72 C-85.07378906 72.2165625 -86.14757812 72.433125 -87.25390625 72.65625 C-88.69003672 72.93784421 -90.12623851 73.21907484 -91.5625 73.5 C-92.26697266 73.64308594 -92.97144531 73.78617187 -93.69726562 73.93359375 C-100.76792519 75.3021085 -106.65866437 76.0353954 -113 72 C-117.64609138 66.88929948 -118.81600021 59.27969882 -119.10546875 52.546875 C-118.72780828 47.94468701 -117.45532301 45.02340763 -114 42 C-106.72296633 38.38601249 -97.92775023 37.47274411 -90 36 C-90.04640625 35.09378906 -90.0928125 34.18757813 -90.140625 33.25390625 C-90.47388101 22.00651597 -88.61739546 15.02176348 -80.93359375 6.7265625 C-74.30146451 0.80454003 -66.80682609 -0.33251902 -58.1953125 -0.30078125 C-53.36419095 0.15398203 -49.31637982 1.86090911 -45 4 C-44.43152344 3.45730469 -43.86304687 2.91460937 -43.27734375 2.35546875 C-30.55972285 -9.42796965 -14.06486427 -11.73325576 0 0 Z M-31 15 C-35.00782845 21.27312279 -31.80715886 30.63384241 -30.51171875 37.54296875 C-30.36724808 38.3150618 -30.2227774 39.08715485 -30.07392883 39.88264465 C-29.76921568 41.49889721 -29.46240644 43.11475592 -29.15356445 44.73022461 C-28.84205578 46.37262102 -28.53674463 48.01620466 -28.23754883 49.66088867 C-27.80073268 52.06182509 -27.34580731 54.45870359 -26.88671875 56.85546875 C-26.75738449 57.5837236 -26.62805023 58.31197845 -26.49479675 59.06230164 C-25.43881861 64.40532296 -23.63276462 69.00273029 -19.1875 72.375 C-14.50341799 73.71330915 -11.11569394 73.55784697 -6.75 71.375 C-3.56733638 68.62633596 -2.26560948 67.0201713 -1 63 C-1.00335427 54.41082683 -3.19633171 45.60586033 -4.79150391 37.19433594 C-5.09822609 35.55913761 -5.39667943 33.92236748 -5.68701172 32.28417969 C-6.11171737 29.88882072 -6.56086203 27.49918738 -7.015625 25.109375 C-7.13979797 24.3842572 -7.26397095 23.6591394 -7.39190674 22.91204834 C-8.42948583 17.6837456 -10.26392882 14.81776582 -14 11 C-20.5825992 7.7087004 -26.37147624 9.91991295 -31 15 Z M-71.3125 22.125 C-74.88443822 28.21052437 -72.87222229 36.07024082 -71.609375 42.7265625 C-71.46348938 43.51847992 -71.31760376 44.31039734 -71.16729736 45.12631226 C-70.85871316 46.78583729 -70.54589981 48.44458112 -70.22900391 50.10253906 C-69.75037391 52.62303099 -69.29450443 55.14696328 -68.83984375 57.671875 C-68.53522694 59.29452914 -68.22928213 60.91693466 -67.921875 62.5390625 C-67.78940369 63.28402985 -67.65693237 64.02899719 -67.52044678 64.79653931 C-66.43183816 70.33279537 -64.76086147 76.1117953 -59.88671875 79.4453125 C-55.72980986 80.730041 -53.51918431 81.12766827 -49.1875 80.0625 C-45.49052241 77.67033803 -43.87936776 75.98425965 -42 72 C-41.70633666 66.18966104 -42.35033839 60.82370883 -43.390625 55.1171875 C-43.53651062 54.29928741 -43.68239624 53.48138733 -43.83270264 52.63870239 C-44.14174658 50.92203519 -44.45456512 49.20604358 -44.77099609 47.49072266 C-45.24948106 44.87783383 -45.70524613 42.26161395 -46.16015625 39.64453125 C-46.46476569 37.96849858 -46.77071018 36.29270788 -47.078125 34.6171875 C-47.21059631 33.84204803 -47.34306763 33.06690857 -47.47955322 32.26828003 C-48.59630715 26.40262773 -50.54742617 21.9362425 -55.375 18.125 C-62.04794015 15.26516851 -66.2807791 17.50125647 -71.3125 22.125 Z " fill="#000000" transform="translate(161,31)"/>
<path d="M0 0 C4.35955695 3.37346668 7.85530332 7.49616158 11.296875 11.77734375 C12.58658203 11.29394531 12.58658203 11.29394531 13.90234375 10.80078125 C21.61871235 8.4743272 30.03492259 8.68135306 37.234375 12.453125 C44.57134743 17.1637948 49.25901218 22.26976849 51.8828125 30.6484375 C53.16601572 37.24603898 53.0409086 44.60326815 50.296875 50.77734375 C51.51375 51.00421875 52.730625 51.23109375 53.984375 51.46484375 C71.42940288 55.39689765 71.42940288 55.39689765 76.296875 62.77734375 C78.72553417 70.63477048 75.71793304 77.5709072 72.296875 84.77734375 C70.40557795 87.73788473 69.64077148 88.16731952 66.296875 89.77734375 C56.59165708 91.90195363 47.16102826 87.26896801 38.296875 83.77734375 C38.12671875 84.87755859 38.12671875 84.87755859 37.953125 86 C36.43139675 92.44017132 32.25764383 97.4484187 26.921875 101.21484375 C19.72176352 105.56868001 11.87960446 107.14237423 3.62890625 105.125 C-4.80398168 102.41484429 -10.55576486 97.9334298 -15.703125 90.77734375 C-16.51394531 90.94492188 -17.32476562 91.1125 -18.16015625 91.28515625 C-27.888723 93.07457831 -35.97442178 93.42240518 -44.578125 88.02734375 C-50.79378631 83.45439293 -55.15734884 77.97677265 -57.390625 70.46484375 C-58.13110696 64.09669885 -57.67322968 58.10612193 -56.703125 51.77734375 C-57.86070312 51.390625 -59.01828125 51.00390625 -60.2109375 50.60546875 C-61.75015546 50.07988213 -63.28920936 49.55381489 -64.828125 49.02734375 C-65.58867187 48.7746875 -66.34921875 48.52203125 -67.1328125 48.26171875 C-77.77686728 44.59135503 -77.77686728 44.59135503 -81.05078125 39.80859375 C-83.46624738 32.28738186 -81.37968025 25.31745543 -78.1796875 18.36328125 C-76.15020157 14.80899637 -74.53972523 13.25295922 -70.703125 11.77734375 C-64.00215394 10.99540998 -58.3884552 12.49418605 -52.140625 14.77734375 C-50.91375977 15.20660156 -50.91375977 15.20660156 -49.66210938 15.64453125 C-47.6713747 16.34303465 -45.68657748 17.05842246 -43.703125 17.77734375 C-43.40792969 16.84921875 -43.11273438 15.92109375 -42.80859375 14.96484375 C-40.01839467 6.91960541 -34.54172595 1.83373712 -27.203125 -2.09765625 C-18.42551168 -4.93244966 -8.02778866 -4.6469582 0 0 Z M-24.703125 16.77734375 C-27.77593589 21.91453847 -29.83556017 27.50585841 -31.75390625 33.15234375 C-32.01697067 33.9211084 -32.2800351 34.68987305 -32.55107117 35.48193359 C-33.09956304 37.09427237 -33.64476057 38.70773533 -34.18676758 40.32226562 C-35.01538781 42.77664119 -35.86769618 45.22197929 -36.72070312 47.66796875 C-37.25408281 49.24559461 -37.78603305 50.82370462 -38.31640625 52.40234375 C-38.57150467 53.12341309 -38.82660309 53.84448242 -39.08943176 54.58740234 C-40.77626434 59.73750243 -40.84133174 63.4555254 -39.703125 68.77734375 C-37.1829467 72.18699675 -35.19588605 73.55833884 -31.328125 75.27734375 C-26.7250335 75.91225292 -24.663372 75.16843628 -20.703125 72.77734375 C-17.15927123 68.20943189 -15.29959307 63.52821043 -13.46875 58.125 C-13.18586121 57.30664169 -12.90297241 56.48828339 -12.61151123 55.64512634 C-12.0190474 53.92286662 -11.43100363 52.19908067 -10.84716797 50.47387695 C-9.9554042 47.84655875 -9.04311845 45.22700089 -8.12890625 42.60742188 C-7.55343361 40.92620993 -6.97917377 39.24458226 -6.40625 37.5625 C-6.13443909 36.78624771 -5.86262817 36.00999542 -5.58258057 35.21022034 C-4.04416886 30.6023447 -3.26934824 26.69918799 -3.703125 21.77734375 C-5.31633221 18.72377296 -6.73373402 16.53900809 -9.453125 14.40234375 C-15.0339431 12.8521165 -20.28172044 12.84720636 -24.703125 16.77734375 Z M12.296875 32.77734375 C10.63107046 35.74892806 9.56650535 38.81722876 8.515625 42.05078125 C8.0608075 43.3746434 8.0608075 43.3746434 7.59680176 44.72525024 C6.96461019 46.58242066 6.34330403 48.44332882 5.73242188 50.30761719 C4.79868338 53.146845 3.82417877 55.96956967 2.84375 58.79296875 C2.23189795 60.60723943 1.62244103 62.42231998 1.015625 64.23828125 C0.72619019 65.07499359 0.43675537 65.91170593 0.1385498 66.77377319 C-1.62342424 72.24810458 -1.93090906 76.13153724 -0.703125 81.77734375 C1.12972693 84.78845764 2.59234752 86.35843552 5.609375 88.15234375 C9.25600637 89.00039756 11.67096398 88.73153086 15.296875 87.77734375 C21.05715348 83.95188346 22.84851752 80.09060546 24.98046875 73.63671875 C25.28509537 72.75510071 25.58972198 71.87348267 25.90357971 70.96514893 C26.54043802 69.10578028 27.16770887 67.24310322 27.78588867 65.37744141 C28.72990029 62.54078977 29.71301965 59.71997249 30.70117188 56.8984375 C31.31750373 55.08284405 31.93151352 53.26646035 32.54296875 51.44921875 C32.83554062 50.61453064 33.12811249 49.77984253 33.42955017 48.91986084 C35.25063861 43.30984179 35.70011747 38.55986531 34.296875 32.77734375 C32.1855381 29.34412635 29.1707248 27.31639643 25.30078125 26.203125 C19.47849405 25.69239805 15.99888882 28.56635082 12.296875 32.77734375 Z " fill="#000000" transform="translate(392.703125,43.22265625)"/>
<path d="M0 0 C16.45281124 11.93920816 16.77704235 29.98634712 19.78979492 48.66503906 C20.19279255 51.15773651 20.60304917 53.64917356 21.01367188 56.140625 C21.27387161 57.74211703 21.53365309 59.34367708 21.79296875 60.9453125 C21.91480026 61.68178009 22.03663177 62.41824768 22.16215515 63.17703247 C22.74359142 66.82004231 23.13944749 70.30938006 23 74 C16.9476555 75.60768151 10.91830136 76.75471648 4.734375 77.7265625 C3.7785553 77.87910492 2.8227356 78.03164734 1.83795166 78.18881226 C-0.16863031 78.50813721 -2.1754923 78.82570711 -4.18261719 79.14160156 C-7.25537608 79.62584723 -10.3269352 80.11722877 -13.3984375 80.609375 C-15.35409922 80.91969617 -17.3098262 81.22960643 -19.265625 81.5390625 C-20.64068207 81.75932602 -20.64068207 81.75932602 -22.04351807 81.98403931 C-23.32570221 82.18457413 -23.32570221 82.18457413 -24.63378906 82.38916016 C-25.75675385 82.56664291 -25.75675385 82.56664291 -26.90240479 82.74771118 C-29 83 -29 83 -33 83 C-34.58313141 77.01668178 -35.74618406 71.05430298 -36.7265625 64.9453125 C-36.87910492 64.00372284 -37.03164734 63.06213318 -37.18881226 62.0920105 C-37.50828862 60.11063342 -37.82585448 58.12894744 -38.14160156 56.14697266 C-38.62267063 53.13956207 -39.11577172 50.13428159 -39.609375 47.12890625 C-39.92001224 45.19282714 -40.22993166 43.2566327 -40.5390625 41.3203125 C-40.75932602 39.991707 -40.75932602 39.991707 -40.98403931 38.63626099 C-42.73112433 27.47163094 -42.74287825 17.8702136 -36.75 7.92578125 C-28.37124412 -3.04753256 -12.10890757 -6.39868694 0 0 Z " fill="#000000" transform="translate(120,161)"/>
<path d="M0 0 C6.19610874 4.60282363 10.14318261 12.25436877 11.59399414 19.74658203 C12.30625622 25.17154724 12.15020149 30.63687038 12.125 36.09765625 C12.12399292 37.13249146 12.12298584 38.16732666 12.12194824 39.23352051 C12.11674208 43.07496255 12.10278092 46.91638871 12.08984375 50.7578125 C12.06921875 59.3584375 12.04859375 67.9590625 12.02734375 76.8203125 C-6.78265625 76.8203125 -25.59265625 76.8203125 -44.97265625 76.8203125 C-45.07784287 69.04585224 -45.17796757 61.27400505 -45.23140717 53.49945068 C-45.25768829 49.87822676 -45.2927386 46.25759876 -45.34985352 42.63671875 C-45.40462925 39.14181588 -45.43417087 35.64748672 -45.44704247 32.15218735 C-45.46062524 30.18582971 -45.49958465 28.21969932 -45.53913879 26.25369263 C-45.54200632 16.98638426 -43.72920839 10.42003236 -37.83203125 3.19921875 C-26.10754402 -6.89686748 -13.37043602 -7.9957855 0 0 Z " fill="#000000" transform="translate(269.97265625,91.1796875)"/>
<path d="M0 0 C0.85855347 5.19546627 1.71293592 10.39159484 2.56347656 15.58837891 C2.85334849 17.35581946 3.14435517 19.12307431 3.43652344 20.89013672 C3.85651014 23.43148482 4.27239872 25.97347494 4.6875 28.515625 C4.81874268 29.30430969 4.94998535 30.09299438 5.08520508 30.90557861 C5.64160347 34.33530266 6 37.51473609 6 41 C-0.9913436 42.14707989 -7.98405956 43.28549109 -14.9777832 44.41796875 C-17.35538458 44.80400714 -19.73266823 45.19200778 -22.10961914 45.58203125 C-25.53189181 46.14322384 -28.95525579 46.6972831 -32.37890625 47.25 C-33.43646622 47.42499023 -34.49402618 47.59998047 -35.58363342 47.78027344 C-36.5841423 47.94043945 -37.58465118 48.10060547 -38.61547852 48.265625 C-39.92452904 48.47880371 -39.92452904 48.47880371 -41.26002502 48.69628906 C-44.48848866 49.05414624 -47.75176368 49 -51 49 C-52.98 35.8 -54.96 22.6 -57 9 C-38.51513418 5.53408766 -38.51513418 5.53408766 -31.484375 4.39453125 C-30.30068329 4.20113411 -30.30068329 4.20113411 -29.09307861 4.00382996 C-27.46374371 3.73829634 -25.83424848 3.47374453 -24.20458984 3.21020508 C-21.70998214 2.8060161 -19.21632333 2.39627593 -16.72265625 1.98632812 C-15.12244982 1.72623015 -13.52219134 1.46645211 -11.921875 1.20703125 C-11.18338318 1.08519974 -10.44489136 0.96336823 -9.684021 0.83784485 C-6.388306 0.30943088 -3.35045059 0 0 0 Z " fill="#000000" transform="translate(146,250)"/>
<path d="M0 0 C3.33346447 2.62156373 4.82950217 4.12138927 5.64697266 8.33398438 C5.6526123 9.57470703 5.65825195 10.81542969 5.6640625 12.09375 C5.66884613 12.76289429 5.67362976 13.43203857 5.67855835 14.12145996 C5.68194656 15.53005334 5.67281922 16.93872652 5.65185547 18.34716797 C5.62506289 20.49495886 5.65162766 22.63752653 5.68359375 24.78515625 C5.68028945 26.15886562 5.67388276 27.53257176 5.6640625 28.90625 C5.65842285 30.14697266 5.6527832 31.38769531 5.64697266 32.66601562 C4.82950217 36.87861073 3.33346447 38.37843627 0 41 C-3.87440468 41.55348638 -6.78044012 41.29968563 -10 39 C-12.27880098 35.52579582 -12.2577296 32.49606724 -12.265625 28.40625 C-12.26820313 27.12878906 -12.27078125 25.85132813 -12.2734375 24.53515625 C-12.26924805 23.87273926 -12.26505859 23.21032227 -12.26074219 22.52783203 C-12.25003459 20.50653057 -12.26065396 18.48611775 -12.2734375 16.46484375 C-12.27085937 15.18738281 -12.26828125 13.90992188 -12.265625 12.59375 C-12.26336914 11.42521484 -12.26111328 10.25667969 -12.25878906 9.05273438 C-12.00879012 6.10369019 -11.6071114 4.45016269 -10 2 C-6.78044012 -0.29968563 -3.87440468 -0.55348638 0 0 Z " fill="#000000" transform="translate(302,286)"/>
<path d="M0 0 C2.05938216 1.57885966 2.84571211 2.69142423 4 5 C4.21102648 9.1049084 4.18579648 13.21137973 4.18530273 17.32128906 C4.18748421 19.36023992 4.20563067 21.39864525 4.22460938 23.4375 C4.22750977 25.36722656 4.22750977 25.36722656 4.23046875 27.3359375 C4.23457764 28.51720215 4.23868652 29.6984668 4.24291992 30.91552734 C4.00862366 33.89050117 3.62489243 35.5342212 2 38 C-1.21955988 40.29968563 -4.12559532 40.55348638 -8 40 C-11.35194715 37.37103998 -12.83625378 35.8915722 -13.61523438 31.65014648 C-13.60814453 30.40305908 -13.60105469 29.15597168 -13.59375 27.87109375 C-13.59379028 27.19957779 -13.59383057 26.52806183 -13.59387207 25.8361969 C-13.58853343 24.42333565 -13.57102098 23.01047349 -13.54199219 21.59790039 C-13.50004845 19.43999243 -13.50093362 17.28520105 -13.5078125 15.12695312 C-13.42881867 4.75893726 -13.42881867 4.75893726 -11.65820312 1.62524414 C-8.08439602 -1.87752881 -4.55382217 -0.97581904 0 0 Z " fill="#000000" transform="translate(357,287)"/>
<path d="M0 0 C2.75034372 2.67908496 3.89372731 4.33267991 4.50170898 8.15039062 C4.49985596 9.30732422 4.49800293 10.46425781 4.49609375 11.65625 C4.49673828 12.92597656 4.49738281 14.19570312 4.49804688 15.50390625 C4.47806641 16.82261719 4.45808594 18.14132812 4.4375 19.5 C4.44458984 20.81871094 4.45167969 22.13742187 4.45898438 23.49609375 C4.38669576 34.45059906 4.38669576 34.45059906 1 39 C-2.13871188 40.56935594 -4.53855822 40.35201103 -8 40 C-11.3829402 37.38798838 -12.83115946 35.89619385 -13.63110352 31.65014648 C-13.63037842 30.40305908 -13.62965332 29.15597168 -13.62890625 27.87109375 C-13.63131821 27.19957779 -13.63373016 26.52806183 -13.63621521 25.8361969 C-13.63523991 24.42337103 -13.62192141 23.01050544 -13.59692383 21.59790039 C-13.56253339 19.43959566 -13.57629332 17.28537257 -13.59570312 15.12695312 C-13.58880581 13.74998264 -13.57913443 12.37302268 -13.56640625 10.99609375 C-13.55552979 9.75013428 -13.54465332 8.5041748 -13.53344727 7.22045898 C-12.91023671 3.45809263 -11.96692619 2.30760926 -9 0 C-5.77839187 -1.61080407 -3.42436421 -0.82657067 0 0 Z " fill="#000000" transform="translate(357,239)"/>
<path d="M0 0 C3.05693857 2.25106485 3.90662967 3.43631667 4.53344727 7.22045898 C4.54432373 8.46641846 4.5552002 9.71237793 4.56640625 10.99609375 C4.57570412 12.0019326 4.57570412 12.0019326 4.58518982 13.02809143 C4.59227528 14.4426224 4.58913597 15.85723699 4.57641602 17.27172852 C4.56255996 19.42816851 4.59661158 21.58025534 4.63476562 23.73632812 C4.63571707 25.11458439 4.63385665 26.49284605 4.62890625 27.87109375 C4.62963135 29.11818115 4.63035645 30.36526855 4.63110352 31.65014648 C3.83156793 35.89402572 2.3689321 37.37651807 -1 40 C-4.5625 40.5625 -4.5625 40.5625 -8 40 C-10.36497439 38.13291495 -11.66030715 36.67938569 -13 34 C-13.25737715 29.91427091 -13.27099847 25.82683513 -13.29516602 21.73364258 C-13.31235006 19.70519971 -13.35623375 17.67840006 -13.40039062 15.65039062 C-13.41295898 13.72549805 -13.41295898 13.72549805 -13.42578125 11.76171875 C-13.44036377 10.58569092 -13.45494629 9.40966309 -13.4699707 8.19799805 C-12.90639629 4.36305714 -11.68586386 2.7389874 -9 0 C-5.81452856 -1.59273572 -3.39809153 -0.76164121 0 0 Z " fill="#000000" transform="translate(303,239)"/>
</svg>
